<svg width="17" height="17" viewBox="0 0 17 17" fill="none" xmlns="http://www.w3.org/2000/svg">
<path d="M2.83683 11.3333V2.83329H1.42017V1.41663H3.54517C3.93637 1.41663 4.2535 1.73376 4.2535 2.12496V10.625H13.064L14.4807 4.95829H5.67017V3.54163H15.3879C15.7792 3.54163 16.0963 3.85876 16.0963 4.24996C16.0963 4.30787 16.0892 4.36557 16.0751 4.42176L14.3043 11.5051C14.2255 11.8204 13.9422 12.0416 13.6171 12.0416H3.54517C3.15397 12.0416 2.83683 11.7245 2.83683 11.3333ZM4.2535 16.2916C3.4711 16.2916 2.83683 15.6574 2.83683 14.875C2.83683 14.0925 3.4711 13.4583 4.2535 13.4583C5.0359 13.4583 5.67017 14.0925 5.67017 14.875C5.67017 15.6574 5.0359 16.2916 4.2535 16.2916ZM12.7535 16.2916C11.9711 16.2916 11.3368 15.6574 11.3368 14.875C11.3368 14.0925 11.9711 13.4583 12.7535 13.4583C13.5359 13.4583 14.1702 14.0925 14.1702 14.875C14.1702 15.6574 13.5359 16.2916 12.7535 16.2916Z" fill="white"/>
</svg>
