<svg width="79" height="82" viewBox="0 0 79 82" fill="none" xmlns="http://www.w3.org/2000/svg">
<path d="M54.6702 11.73H19.7202C12.8102 11.73 7.16016 17.38 7.16016 24.29V59.24C7.16016 66.15 12.8102 71.8 19.7202 71.8H40.9102C50.2402 71.8 48.7702 77.81 48.1102 79.62C48.0202 79.87 48.2102 80.13 48.4702 80.12C58.8402 79.76 67.2202 69.68 67.2202 59.24V24.29C67.2302 17.38 61.5802 11.73 54.6702 11.73Z" stroke="#2D3845" stroke-width="2" stroke-miterlimit="10" stroke-linecap="round" stroke-linejoin="round"/>
<path d="M3.41004 66.3101L2.04004 66.0801" stroke="#FFD200" stroke-width="2" stroke-miterlimit="10" stroke-linecap="round" stroke-linejoin="round"/>
<path d="M8.18019 72.25L7.9502 73.62" stroke="#FFD200" stroke-width="2" stroke-miterlimit="10" stroke-linecap="round" stroke-linejoin="round"/>
<path d="M4.97008 69.8701L3.83008 70.6701" stroke="#FFD200" stroke-width="2" stroke-miterlimit="10" stroke-linecap="round" stroke-linejoin="round"/>
<path d="M11.5601 7.2798L12.5501 6.2998" stroke="#FFD200" stroke-width="2" stroke-miterlimit="10" stroke-linecap="round" stroke-linejoin="round"/>
<path d="M16.8599 1.98L17.8399 1" stroke="#FFD200" stroke-width="2" stroke-miterlimit="10" stroke-linecap="round" stroke-linejoin="round"/>
<path d="M17.8399 7.2798L16.8599 6.2998" stroke="#FFD200" stroke-width="2" stroke-miterlimit="10" stroke-linecap="round" stroke-linejoin="round"/>
<path d="M12.5501 1.98L11.5601 1" stroke="#FFD200" stroke-width="2" stroke-miterlimit="10" stroke-linecap="round" stroke-linejoin="round"/>
<path d="M1.26 9.44017L1 9.18018" stroke="#FFD200" stroke-width="2" stroke-miterlimit="10" stroke-linecap="round" stroke-linejoin="round"/>
<path d="M72.18 11.0098L71.23 10.0698" stroke="#FFD200" stroke-width="2" stroke-miterlimit="10" stroke-linecap="round" stroke-linejoin="round"/>
<path d="M5.01976 13.1999L4.75977 12.9399" stroke="#FFD200" stroke-width="2" stroke-miterlimit="10" stroke-linecap="round" stroke-linejoin="round"/>
<path d="M1.26 12.9399L1 13.1999" stroke="#FFD200" stroke-width="2" stroke-miterlimit="10" stroke-linecap="round" stroke-linejoin="round"/>
<path d="M5.01976 9.18018L4.75977 9.44017" stroke="#FFD200" stroke-width="2" stroke-miterlimit="10" stroke-linecap="round" stroke-linejoin="round"/>
<path d="M77.65 16.4898L76.71 15.5498" stroke="#FFD200" stroke-width="2" stroke-miterlimit="10" stroke-linecap="round" stroke-linejoin="round"/>
<path d="M76.71 11.0098L77.65 10.0698" stroke="#FFD200" stroke-width="2" stroke-miterlimit="10" stroke-linecap="round" stroke-linejoin="round"/>
<path d="M71.23 16.4898L72.18 15.5498" stroke="#FFD200" stroke-width="2" stroke-miterlimit="10" stroke-linecap="round" stroke-linejoin="round"/>
<path d="M29.3401 77.24L29.0801 76.98" stroke="#FFD200" stroke-width="2" stroke-miterlimit="10" stroke-linecap="round" stroke-linejoin="round"/>
<path d="M33.0998 81.0002L32.8398 80.7402" stroke="#FFD200" stroke-width="2" stroke-miterlimit="10" stroke-linecap="round" stroke-linejoin="round"/>
<path d="M29.3401 80.7402L29.0801 81.0002" stroke="#FFD200" stroke-width="2" stroke-miterlimit="10" stroke-linecap="round" stroke-linejoin="round"/>
<path d="M33.0998 76.98L32.8398 77.24" stroke="#FFD200" stroke-width="2" stroke-miterlimit="10" stroke-linecap="round" stroke-linejoin="round"/>
<path d="M1.83984 28.1802V28.6602" stroke="#FFD200" stroke-width="2" stroke-miterlimit="10" stroke-linecap="round" stroke-linejoin="round"/>
<path d="M1.83984 32.54V33.02" stroke="#FFD200" stroke-width="2" stroke-miterlimit="10" stroke-linecap="round" stroke-linejoin="round"/>
<path d="M1.83984 36.8999V37.3799" stroke="#FFD200" stroke-width="2" stroke-miterlimit="10" stroke-linecap="round" stroke-linejoin="round"/>
<path d="M72.5601 48.5098V48.9998" stroke="#FFD200" stroke-width="2" stroke-miterlimit="10" stroke-linecap="round" stroke-linejoin="round"/>
<path d="M72.5601 52.8701V53.3601" stroke="#FFD200" stroke-width="2" stroke-miterlimit="10" stroke-linecap="round" stroke-linejoin="round"/>
<path d="M72.5601 57.23V57.71" stroke="#FFD200" stroke-width="2" stroke-miterlimit="10" stroke-linecap="round" stroke-linejoin="round"/>
<path d="M46.2199 30.9202L35.6699 41.4702C35.1799 41.9602 34.3999 41.9602 33.9099 41.4702L28.9499 36.5102C28.4599 36.0202 27.6799 36.0202 27.1899 36.5102L22.6199 41.0802C22.1299 41.5702 22.1299 42.3502 22.6199 42.8402L32.6199 52.8602C33.8099 54.0502 35.7399 54.0502 36.9299 52.8602L52.5399 37.2502C53.0299 36.7602 53.0299 35.9802 52.5399 35.4902L47.9699 30.9202C47.4999 30.4302 46.7099 30.4302 46.2199 30.9202Z" stroke="#FFD200" stroke-width="2" stroke-miterlimit="10" stroke-linecap="round" stroke-linejoin="round"/>
</svg>
