<svg width="82" height="55" viewBox="0 0 82 55" fill="none" xmlns="http://www.w3.org/2000/svg">
<path d="M10.3101 37.0298H19.4601" stroke="#FFD200" stroke-width="2" stroke-miterlimit="10" stroke-linecap="round" stroke-linejoin="round"/>
<path d="M5.6499 44.8398H16.8499" stroke="#FFD200" stroke-width="2" stroke-miterlimit="10" stroke-linecap="round" stroke-linejoin="round"/>
<path d="M1 29.2202H15.3" stroke="#FFD200" stroke-width="2" stroke-miterlimit="10" stroke-linecap="round" stroke-linejoin="round"/>
<path d="M12.9102 21.3999H18.1602" stroke="#FFD200" stroke-width="2" stroke-miterlimit="10" stroke-linecap="round" stroke-linejoin="round"/>
<path d="M76.7202 19.46C77.4502 21.86 77.8401 24.4 77.8401 27.04C77.8401 41.42 66.1802 53.08 51.8002 53.08H13.1602" stroke="#2D3845" stroke-width="2" stroke-miterlimit="10" stroke-linecap="round" stroke-linejoin="round"/>
<path d="M32.07 44.04C28.13 39.48 25.75 33.54 25.75 27.04C25.75 12.66 37.41 1 51.79 1C58.78 1 65.12 3.75 69.8 8.23C70.19 8.6 70.57 8.99 70.93 9.38" stroke="#2D3845" stroke-width="2" stroke-miterlimit="10" stroke-linecap="round" stroke-linejoin="round"/>
<path d="M37.1001 21.5602L51.8901 36.3502L81.0001 7.24023" stroke="#FFD200" stroke-width="2" stroke-miterlimit="10" stroke-linecap="round" stroke-linejoin="round"/>
</svg>
