<svg width="68" height="82" viewBox="0 0 68 82" fill="none" xmlns="http://www.w3.org/2000/svg">
<path d="M66.29 37.2L59.75 31.04L64.84 23.63L56.36 20.66L58 11.82L49.04 12.55L46.94 3.82001L39.06 8.13L33.59 1L28.14 8.14999L20.24 3.86002L18.17 12.6L9.21 11.9L10.88 20.73L2.41 23.73L7.52 31.12L1 37.31L8.68 41.98L5.24 50.28L14.15 51.43L14.39 60.41L20.46 58.59V81L33.71 72.58L46.97 81V58.57L52.98 60.35L53.18 51.36L62.09 50.19L58.63 41.9L66.29 37.2Z" stroke="#2D3845" stroke-width="2" stroke-miterlimit="10" stroke-linecap="round" stroke-linejoin="round"/>
<path d="M41.1322 54.1641C52.1773 50.0681 57.8107 37.7938 53.7148 26.7487C49.6188 15.7035 37.3445 10.0701 26.2993 14.1661C15.2542 18.2621 9.62075 30.5364 13.7167 41.5815C17.8127 52.6267 30.087 58.2601 41.1322 54.1641Z" stroke="#FFD200" stroke-width="2" stroke-miterlimit="10" stroke-linecap="round" stroke-linejoin="round"/>
<path d="M23.4702 32.7898L31.7902 41.1098L45.4002 27.5098" stroke="#FFD200" stroke-width="2" stroke-miterlimit="10" stroke-linecap="round" stroke-linejoin="round"/>
</svg>
