<svg id="Camada_1" data-name="Camada 1" xmlns="http://www.w3.org/2000/svg" viewBox="0 0 714.81 254.16"><defs><style>.cls-1{fill:#fff;}</style></defs><title>logo msd</title><path class="cls-1" d="M53.49,52.86a52.29,52.29,0,0,1,104.58,0Zm0,104.55a52.29,52.29,0,1,0,104.58,0Zm47.34-52.49A52.26,52.26,0,0,1,53.49,52.86a52.28,52.28,0,0,0,0,104.55,52.34,52.34,0,0,1,47.34-52.06Zm9.94.43a52.33,52.33,0,0,1,47.3,52.06,52.28,52.28,0,1,0,0-104.55,52.24,52.24,0,0,1-47.3,52.06Z"/><polygon class="cls-1" points="317.36 106.38 295.95 52.95 262.62 52.95 262.62 157.32 285.11 157.32 285.11 83.26 317.36 158.4 317.37 158.4 349.65 83.26 349.65 157.32 372.07 157.32 372.07 52.95 338.74 52.95 317.36 106.38"/><path class="cls-1" d="M380.46,124.6c-.74,26,17,35.71,37.59,36.16,23.9.57,42.14-9.64,42.14-32.61,0-23.17-20.67-26.78-36.85-32.05-6.23-2-17.87-3.84-17.87-14.51,0-9,7.73-13.19,15.62-13.19,10.15,0,15.39,5,16.16,15.41h20.3c0-20.63-15.86-32.64-34.85-32.64-18.83,0-39.38,11-39.38,32.43,0,18.59,20.49,28.11,32.15,31.12,6.39,1.74,22.52,3.49,22.52,15.06,0,11-11.24,14-19.72,14-10.91,0-17.31-7.66-16.36-19.18Z"/><path class="cls-1" d="M558.55,105.17c0-36.16-28.12-52.37-55.82-52.37H469.41V157.32h33.32c27.7,0,55.82-16,55.82-52.15m-57.31,33.15-9.2,0V72.05h9.2c25.39,0,34.55,16.56,34.55,33.12s-9.16,33.15-34.55,33.15"/><path class="cls-1" d="M269,238.36c.16,3.47.57,9.93,12.18,9.93,10.48,0,11.79-6.46,11.79-8.93,0-5.66-4.55-6.75-11.59-8.48-7.68-1.88-11.13-2.74-13.74-4.44a11.31,11.31,0,0,1-5.23-9.89c0-10.16,9.73-14.61,19.23-14.61,3.38,0,10.16.59,14.23,4.94,2.82,3.06,2.92,6.47,3.05,8.52h-7.26c-.36-6.23-5.65-7.63-10.63-7.63-7,0-11.19,3.11-11.19,8.1,0,4.51,2.91,6,9.12,7.46,12,3,13.32,3.3,16.25,5.24a11.46,11.46,0,0,1,5.06,10c0,8.91-7,15.62-19.92,15.62-3.87,0-11.7-.62-15.69-5.65a15.65,15.65,0,0,1-2.95-10.15Z"/><path class="cls-1" d="M330.65,253a18.79,18.79,0,0,1-.63-5.22,11.47,11.47,0,0,1-10.85,6.32c-8.05,0-12.38-4.55-12.38-10.29a11.5,11.5,0,0,1,6.14-10.18c3.78-2.06,9.36-2.27,12.19-2.27,1.66,0,2.74.06,4.75.21,0-4.36,0-6.2-1.25-7.72-1.34-1.74-4.2-2.31-6.07-2.31-6.65,0-7,4.5-7.09,5.87h-6.58a11.06,11.06,0,0,1,2.46-6.55c2.66-2.92,7.62-3.75,11.33-3.75,5.11,0,10.59,1.6,12.47,5.13a10.31,10.31,0,0,1,1.17,5.32L336,244.25a81.26,81.26,0,0,0,.53,8.78Zm-4.57-17.16c-2.64,0-12.64,0-12.64,7,0,2.25,1.41,6.1,7.26,6.1a8.58,8.58,0,0,0,7.52-3.78c1.47-2.35,1.52-4.31,1.65-9.14a28.89,28.89,0,0,0-3.79-.22"/><path class="cls-1" d="M354.14,218.19v22.37c0,3.42.79,7.73,7.49,7.73,3.3,0,6.37-1.12,8.27-3.85,1.46-2.13,1.46-4.8,1.46-6.58V218.19h6.79v28.32c0,.66.13,4.55.21,6.52H371.5l-.14-6c-1.25,2.41-3.63,6.31-11.17,6.31-8.67,0-12.77-5-12.77-11.82V218.19Zm18.12-16.49-8.45,10h-4.5l5.7-10Z"/><path class="cls-1" d="M415.22,203h6.6v44.45c0,.75.14,3.75.27,5.58h-6.6l-.15-5.58a10.44,10.44,0,0,1-3.12,3.7,16.44,16.44,0,0,1-8.68,2.57c-4.67,0-15.11-2.49-15.11-17.72,0-13.24,7.65-19,15.89-19,7.56,0,10.09,4.43,10.9,5.87Zm-2.43,22.39a9.55,9.55,0,0,0-7.7-3.52c-9.68,0-9.68,11.6-9.68,13.89,0,6.2,1.65,13.34,9.68,13.34,10.38,0,10.38-11.31,10.38-14,0-5-1.21-7.86-2.68-9.71"/><path class="cls-1" d="M437.63,236.77c-.12,7.21,2.87,12.55,10.09,12.55,4.22,0,7.72-2.23,8.21-7.23h6.57a11.88,11.88,0,0,1-3,7.34c-1.54,1.72-5.09,4.59-12.11,4.59-11.08,0-16.32-6.79-16.32-17.82,0-6.83,1.4-12.54,6.94-16.36,3.34-2.35,7.56-2.54,9.58-2.54,15.74,0,15.41,13.78,15.24,19.47Zm18.53-4.58c.07-3.34-.58-10.24-8.67-10.24-4.26,0-9.44,2.51-9.59,10.24Z"/><path class="cls-1" d="M504.24,202.93h7.45L532.17,253h-7.63l-5.46-13H495.61l-5.4,13H483Zm-6.38,31.43H517l-9.3-24.59Z"/><path class="cls-1" d="M539.21,222.18l-.05-4h6.57l0,5.57c.8-1.41,3.33-6.28,11.3-6.28,3.14,0,12.71,1.19,12.71,11.89V253h-6.71V230.88c0-2.31-.26-4.37-1.91-6a9,9,0,0,0-6.2-2.37c-4.73,0-9.19,3.42-9.19,10.43V253h-6.56Z"/><path class="cls-1" d="M581.1,203.08H589v7.15H581.1Zm.74,15.11h6.56V253h-6.56Z"/><path class="cls-1" d="M601.13,222.83l-.12-4.64h6.6v5.07c3.36-5.48,8.17-6,11.16-6,7.77,0,10.19,3.94,11.46,6.46,1.2-1.89,4.06-6.46,11.86-6.46,5,0,12.86,2,12.86,12.29V253h-6.68V230.66c0-3.07-.58-4.34-1.19-5.27-1.11-1.63-3.35-3-6.69-3a9,9,0,0,0-7.52,3.66c-1.52,2.13-1.52,6-1.52,7.5V253h-6.64V230c0-4.32-2.52-7.62-7.7-7.62a9.55,9.55,0,0,0-7.69,3.78c-1.51,2-1.53,4.87-1.53,7.1V253h-6.66Z"/><path class="cls-1" d="M688.68,253a18.41,18.41,0,0,1-.62-5.22,11.51,11.51,0,0,1-10.86,6.32c-8.08,0-12.41-4.55-12.41-10.29A11.57,11.57,0,0,1,671,233.66c3.8-2.06,9.37-2.27,12.16-2.27,1.72,0,2.76.06,4.75.21,0-4.36,0-6.2-1.23-7.72-1.29-1.74-4.22-2.31-6.1-2.31-6.68,0-7,4.5-7.09,5.87h-6.54a11.11,11.11,0,0,1,2.42-6.55c2.69-2.92,7.64-3.75,11.35-3.75,5.12,0,10.57,1.6,12.45,5.13a10.13,10.13,0,0,1,1.18,5.32l-.27,16.66a83.23,83.23,0,0,0,.55,8.78Zm-4.57-17.16c-2.64,0-12.65,0-12.65,7,0,2.25,1.4,6.1,7.27,6.1a8.52,8.52,0,0,0,7.5-3.78c1.44-2.35,1.5-4.31,1.65-9.14a28.23,28.23,0,0,0-3.77-.22"/><rect class="cls-1" x="706.32" y="203" width="6.53" height="50.02"/></svg>