<svg width="147" height="147" viewBox="0 0 147 147" fill="none" xmlns="http://www.w3.org/2000/svg">
<path d="M73.5 134.75C39.6725 134.75 12.25 107.327 12.25 73.5C12.25 39.6725 39.6725 12.25 73.5 12.25C107.327 12.25 134.75 39.6725 134.75 73.5C134.75 107.327 107.327 134.75 73.5 134.75ZM73.5 122.5C100.562 122.5 122.5 100.562 122.5 73.5C122.5 46.438 100.562 24.5 73.5 24.5C46.438 24.5 24.5 46.438 24.5 73.5C24.5 100.562 46.438 122.5 73.5 122.5ZM67.3909 98L41.4049 72.0141L50.067 63.3515L67.3909 80.6761L102.039 46.0277L110.701 54.6897L67.3909 98Z" fill="#5C3161"/>
</svg>
