<svg width="18" height="18" viewBox="0 0 18 18" fill="none" xmlns="http://www.w3.org/2000/svg">
<rect width="18" height="18" rx="4" fill="#E43648"/>
<path d="M5.5 13C5.5 13.2652 5.60536 13.5196 5.79289 13.7071C5.98043 13.8946 6.23478 14 6.5 14H11.5C11.7652 14 12.0196 13.8946 12.2071 13.7071C12.3946 13.5196 12.5 13.2652 12.5 13V7H13.5V6H11.5V5C11.5 4.73478 11.3946 4.48043 11.2071 4.29289C11.0196 4.10536 10.7652 4 10.5 4H7.5C7.23478 4 6.98043 4.10536 6.79289 4.29289C6.60536 4.48043 6.5 4.73478 6.5 5V6H4.5V7H5.5V13ZM7.5 5H10.5V6H7.5V5ZM7 7H11.5V13H6.5V7H7Z" fill="white"/>
<path d="M7.5 8H8.5V12H7.5V8ZM9.5 8H10.5V12H9.5V8Z" fill="white"/>
</svg>
